<svg width="103" height="25" viewBox="0 0 103 25" fill="none" xmlns="http://www.w3.org/2000/svg">
<path d="M85.7844 22.3506C80.756 22.3506 76.7965 18.5725 76.7965 13.3265C76.7965 8.08053 80.756 4.35059 85.7844 4.35059C90.837 4.35059 94.7965 8.08053 94.7965 13.3265C94.7965 18.5725 90.837 22.3506 85.7844 22.3506ZM85.7844 18.2837C88.5293 18.2837 90.0597 16.0458 90.0597 13.3265C90.0597 10.6073 88.5293 8.41743 85.7844 8.41743C83.0394 8.41743 81.5091 10.6073 81.5091 13.3265C81.5091 16.0458 83.0394 18.2837 85.7844 18.2837Z" fill="#26282C"/>
<path fill-rule="evenodd" clip-rule="evenodd" d="M58.7965 22.1674C58.7965 22.1593 58.7965 22.1512 58.7965 22.1431C58.7965 16.8315 62.756 13.0549 67.7844 13.0549C72.837 13.0549 76.7965 16.8315 76.7965 22.1431C76.7965 22.1512 76.7965 22.1593 76.7965 22.1674H72.0596C72.0597 22.1593 72.0597 22.1512 72.0597 22.1431C72.0597 19.3898 70.5293 17.1726 67.7844 17.1726C65.0394 17.1726 63.5091 19.3898 63.5091 22.1431C63.5091 22.1512 63.5091 22.1593 63.5091 22.1674H58.7965Z" fill="#9FC9FF"/>
<path fill-rule="evenodd" clip-rule="evenodd" d="M76.7965 4.16728C76.7965 4.1754 76.7965 4.18352 76.7965 4.19165C76.7965 9.50321 72.837 13.2798 67.8087 13.2798C62.756 13.2798 58.7965 9.50321 58.7965 4.19165C58.7965 4.18352 58.7965 4.1754 58.7965 4.16728H63.5334C63.5334 4.1754 63.5334 4.18352 63.5334 4.19165C63.5334 6.94489 65.0637 9.1621 67.8087 9.1621C70.5536 9.1621 72.084 6.94489 72.084 4.19165C72.084 4.18352 72.0839 4.1754 72.0839 4.16728H76.7965Z" fill="#9FC9FF"/>
<path d="M55.7324 22.1514H51.0074V4.20137H55.7324V22.1514Z" fill="#26282C"/>
<path d="M39.5601 22.1248H34.8351V4.17475H47.0601V8.27476H39.5601V11.5998H45.8351V15.6998H39.5601V22.1248Z" fill="#26282C"/>
<path opacity="0.4" fill-rule="evenodd" clip-rule="evenodd" d="M12.8623 0.167236C9.68595 0.168021 6.63999 1.43036 4.39427 3.67663C2.14855 5.92291 0.886963 8.96917 0.886963 12.1455C0.886963 15.3218 2.14855 18.3681 4.39427 20.6144C6.63999 22.8606 9.68595 24.123 12.8623 24.1238V0.167236Z" fill="#9FC9FF"/>
<path fill-rule="evenodd" clip-rule="evenodd" d="M24.9459 24.1237H12.8622C6.24499 24.0949 0.883986 18.7778 0.883986 12.1454L0.88208 12.145H12.8623L12.8622 12.1454L12.8823 12.145H13.4882C16.5172 12.2228 19.3994 13.4666 21.5339 15.6171C23.6684 17.7676 24.8907 20.6589 24.9459 23.6884V24.1237Z" fill="#9FC9FF"/>
<path opacity="0.51" fill-rule="evenodd" clip-rule="evenodd" d="M12.8625 12.145L0.884187 12.1454C0.878503 14.6206 1.64492 17.036 3.07669 19.0551C3.08708 19.0697 3.09755 19.0844 3.10793 19.099C4.21878 20.6502 5.68271 21.9148 7.37881 22.7885C9.07492 23.6622 10.9545 24.1199 12.8624 24.1237L12.8625 12.145Z" fill="#F5FAFF"/>
<circle cx="19.8479" cy="6.15647" r="4.99094" fill="#9FC9FF"/>
</svg>
